# xmcd CD database file generated by OrangeCD 6.2
#
# Track frame offsets:
#	150
#	29149
#	59796
#	92457
#	116637
#	139128
#	153283
#	183319
#	204632
#	227160
#	261627
#	272465
#
# Disc length: 3872 seconds
#
# Revision: 0
# Processed by: cddbd v1.5.2PL0 Copyright (c) Steve Scherf et al.
# Submitted via: OrangeCD 6.2
#
DISCID=b30f1e0c
DTITLE=Joe Bonamassa - The Ballad Of John Henry
DYEAR=2009
DGENRE=Blues
TTITLE0=The Ballad of John Henry
TTITLE1=Stop!
TTITLE2=Last Kiss
TTITLE3=Jockey Full Of Bourbon
TTITLE4=Story Of A Quarryman
TTITLE5=Lonesome Road Blues
TTITLE6=Happier Times
TTITLE7=Feelin' Good
TTITLE8=Funker Than A Mosquito's Tweeter
TTITLE9=The Great Flood
TTITLE10=From The Valley
TTITLE11=As The Crow Flies
EXTD=
EXTT0=
EXTT1=
EXTT2=
EXTT3=
EXTT4=
EXTT5=
EXTT6=
EXTT7=
EXTT8=
EXTT9=
EXTT10=
EXTT11=
PLAYORDER=
